<svg width="36" height="31" viewBox="0 0 36 31" fill="none" xmlns="http://www.w3.org/2000/svg">
<path d="M32 28.7635H4C3.53587 28.7635 3.09075 28.609 2.76256 28.334C2.43437 28.0591 2.25 27.6861 2.25 27.2972V3.8378C2.25 3.44893 2.43437 3.076 2.76256 2.80103C3.09075 2.52606 3.53587 2.37158 4 2.37158H32C32.4641 2.37158 32.9092 2.52606 33.2374 2.80103C33.5656 3.076 33.75 3.44893 33.75 3.8378V27.2972C33.75 27.6861 33.5656 28.0591 33.2374 28.334C32.9092 28.609 32.4641 28.7635 32 28.7635ZM12.75 15.5675C12.75 16.4375 13.0579 17.2879 13.6348 18.0113C14.2117 18.7346 15.0316 19.2984 15.9909 19.6313C16.9502 19.9643 18.0058 20.0514 19.0242 19.8817C20.0426 19.7119 20.9781 19.293 21.7123 18.6778C22.4465 18.0627 22.9466 17.2789 23.1491 16.4257C23.3517 15.5724 23.2477 14.688 22.8504 13.8842C22.453 13.0805 21.7801 12.3935 20.9167 11.9102C20.0534 11.4269 19.0384 11.1689 18 11.1689C16.6076 11.1689 15.2723 11.6323 14.2877 12.4572C13.3031 13.2821 12.75 14.4009 12.75 15.5675Z" stroke="#D9D9D9" stroke-width="4" stroke-linecap="round" stroke-linejoin="round"/>
</svg>
