<svg width="41" height="29" viewBox="0 0 41 29" fill="none" xmlns="http://www.w3.org/2000/svg">
<path d="M3.39778 3.45677L19.2256 13.974C19.5885 14.2161 20.0375 14.3479 20.5 14.3479C20.9625 14.3479 21.4115 14.2161 21.7744 13.974L37.6022 3.45677M36.9444 26.9731H4.05556C3.51039 26.9731 2.98755 26.7902 2.60206 26.4648C2.21657 26.1393 2 25.6979 2 25.2376V4.4113C2 3.95101 2.21657 3.50958 2.60206 3.1841C2.98755 2.85863 3.51039 2.67578 4.05556 2.67578H36.9444C37.4896 2.67578 38.0125 2.85863 38.3979 3.1841C38.7834 3.50958 39 3.95101 39 4.4113V25.2376C39 25.6979 38.7834 26.1393 38.3979 26.4648C38.0125 26.7902 37.4896 26.9731 36.9444 26.9731Z" stroke="#D9D9D9" stroke-width="4" stroke-linecap="round" stroke-linejoin="round"/>
</svg>
