<svg width="1440" height="284" viewBox="0 0 1440 284" fill="none" xmlns="http://www.w3.org/2000/svg">
<path d="M1440 0H0V284H1440V0Z" fill="#1C3A59"/>
<path d="M0 184L34.3 176.8C68.7 169.7 137.3 155.3 205.8 152.2C274.3 149 342.7 157 411.2 158.2C479.7 159.3 548.3 153.7 617 154.5C685.7 155.3 754.3 162.7 823 170.3C891.7 178 960.3 186 1028.8 181C1097.3 176 1165.7 158 1234.2 152.2C1302.7 146.3 1371.3 152.7 1405.7 155.8L1440 159V0H1405.7C1371.3 0 1302.7 0 1234.2 0C1165.7 0 1097.3 0 1028.8 0C960.3 0 891.7 0 823 0C754.3 0 685.7 0 617 0C548.3 0 479.7 0 411.2 0C342.7 0 274.3 0 205.8 0C137.3 0 68.7 0 34.3 0H0V184Z" fill="#1C3A59"/>
<path d="M0 126L34.3 131.7C68.7 137.3 137.3 148.7 205.8 152.5C274.3 156.3 342.7 152.7 411.2 149.5C479.7 146.3 548.3 143.7 617 137.2C685.7 130.7 754.3 120.3 823 117C891.7 113.7 960.3 117.3 1028.8 126.3C1097.3 135.3 1165.7 149.7 1234.2 157C1302.7 164.3 1371.3 164.7 1405.7 164.8L1440 165V0H1405.7C1371.3 0 1302.7 0 1234.2 0C1165.7 0 1097.3 0 1028.8 0C960.3 0 891.7 0 823 0C754.3 0 685.7 0 617 0C548.3 0 479.7 0 411.2 0C342.7 0 274.3 0 205.8 0C137.3 0 68.7 0 34.3 0H0V126Z" fill="#435771"/>
<path d="M0 100L34.3 102.2C68.7 104.3 137.3 108.7 205.8 106.7C274.3 104.7 342.7 96.3 411.2 99.5C479.7 102.7 548.3 117.3 617 121.3C685.7 125.3 754.3 118.7 823 111C891.7 103.3 960.3 94.7 1028.8 98.7C1097.3 102.7 1165.7 119.3 1234.2 124.2C1302.7 129 1371.3 122 1405.7 118.5L1440 115V0H1405.7C1371.3 0 1302.7 0 1234.2 0C1165.7 0 1097.3 0 1028.8 0C960.3 0 891.7 0 823 0C754.3 0 685.7 0 617 0C548.3 0 479.7 0 411.2 0C342.7 0 274.3 0 205.8 0C137.3 0 68.7 0 34.3 0H0V100Z" fill="#68758A"/>
<path d="M0 85L34.3 84C68.7 83 137.3 81 205.8 77.2C274.3 73.3 342.7 67.7 411.2 71C479.7 74.3 548.3 86.7 617 91.2C685.7 95.7 754.3 92.3 823 92.8C891.7 93.3 960.3 97.7 1028.8 96.3C1097.3 95 1165.7 88 1234.2 85.8C1302.7 83.7 1371.3 86.3 1405.7 87.7L1440 89V0H1405.7C1371.3 0 1302.7 0 1234.2 0C1165.7 0 1097.3 0 1028.8 0C960.3 0 891.7 0 823 0C754.3 0 685.7 0 617 0C548.3 0 479.7 0 411.2 0C342.7 0 274.3 0 205.8 0C137.3 0 68.7 0 34.3 0H0V85Z" fill="#8C95A4"/>
<path d="M0 71L34.3 72.2C68.7 73.3 137.3 75.7 205.8 76.2C274.3 76.7 342.7 75.3 411.2 70.7C479.7 66 548.3 58 617 54.2C685.7 50.3 754.3 50.7 823 49.5C891.7 48.3 960.3 45.7 1028.8 48.5C1097.3 51.3 1165.7 59.7 1234.2 59.5C1302.7 59.3 1371.3 50.7 1405.7 46.3L1440 42V0H1405.7C1371.3 0 1302.7 0 1234.2 0C1165.7 0 1097.3 0 1028.8 0C960.3 0 891.7 0 823 0C754.3 0 685.7 0 617 0C548.3 0 479.7 0 411.2 0C342.7 0 274.3 0 205.8 0C137.3 0 68.7 0 34.3 0H0V71Z" fill="#B2B6BE"/>
<path d="M0 48L34.3 43.7C68.7 39.3 137.3 30.7 205.8 26.2C274.3 21.7 342.7 21.3 411.2 25.7C479.7 30 548.3 39 617 42.2C685.7 45.3 754.3 42.7 823 39.5C891.7 36.3 960.3 32.7 1028.8 31.8C1097.3 31 1165.7 33 1234.2 35.7C1302.7 38.3 1371.3 41.7 1405.7 43.3L1440 45V0H1405.7C1371.3 0 1302.7 0 1234.2 0C1165.7 0 1097.3 0 1028.8 0C960.3 0 891.7 0 823 0C754.3 0 685.7 0 617 0C548.3 0 479.7 0 411.2 0C342.7 0 274.3 0 205.8 0C137.3 0 68.7 0 34.3 0H0V48Z" fill="#ECECEC"/>
</svg>
